<svg xmlns="http://www.w3.org/2000/svg" xmlns:xlink="http://www.w3.org/1999/xlink" version="1.1" x="0px" y="0px" width="100px" height="100px" viewBox="0 0 100 100" enable-background="new 0 0 100 100" xml:space="preserve">
<g id="Captions">
</g>
<g id="Your_Icon">
	<path d="M20,74c3.309,0,6,2.691,6,6s-2.691,6-6,6s-6-2.691-6-6S16.691,74,20,74 M20,70c-5.523,0-10,4.478-10,10s4.477,10,10,10   s10-4.478,10-10S25.522,70,20,70L20,70z"/>
	<path d="M80,74c3.309,0,6,2.691,6,6s-2.691,6-6,6s-6-2.691-6-6S76.691,74,80,74 M80,70c-5.523,0-10,4.478-10,10s4.477,10,10,10   c5.522,0,10-4.478,10-10S85.522,70,80,70L80,70z"/>
	<path d="M90,30H30C13.43,30,0,43.43,0,60v20h8c0-6.63,5.37-12,12-12s12,5.37,12,12h36c0-6.63,5.37-12,12-12   c6.56,0,11.88,5.27,11.99,11.8C96.56,78.88,100,74.84,100,70V40C100,34.48,95.52,30,90,30z M30,53c0,1.657-1.343,3-3,3H4.31   c1.774-11.433,11.023-20.434,22.585-21.816c0.787-0.094,1.576,0.154,2.169,0.68C29.658,35.389,30,36.144,30,36.937V53z M96,50h-8v8   h-8v-8h-8v-8h8v-8h8v8h8V50z"/>
	<path d="M39,24.5c0-2.485-2.015-4.5-4.5-4.5S30,22.015,30,24.5V29h9V24.5z"/>
</g>
</svg>