<?xml version="1.0" encoding="utf-8"?>
<!-- Generator: Adobe Illustrator 16.0.0, SVG Export Plug-In . SVG Version: 6.00 Build 0)  -->
<!DOCTYPE svg PUBLIC "-//W3C//DTD SVG 1.1//EN" "http://www.w3.org/Graphics/SVG/1.1/DTD/svg11.dtd">
<svg version="1.1" id="Layer_1" xmlns="http://www.w3.org/2000/svg" xmlns:xlink="http://www.w3.org/1999/xlink" x="0px" y="0px"
	 width="100px" height="72.148px" viewBox="-2.622 15.257 100 72.148" enable-background="new -2.622 15.257 100 72.148"
	 xml:space="preserve">
<g>
	<g>
		<path d="M61.062,30.159c-9.193-0.748-31.14-2.641-34.83-3.973c-0.845-0.305-1.724-0.438-2.603-0.438
			c-3.991,0-7.954,2.762-8.604,4.733l29.657,11.397C49.787,38.13,55.416,34.07,61.062,30.159z"/>
		<path d="M97.31,16.649c-1.787-0.986-3.442-1.392-5.01-1.392c-4.73,0-8.647,3.694-12.892,6.258
			c-3.768,2.275-7.839,4.913-11.994,7.713c-0.365,0.248-0.734,0.496-1.104,0.746c-6.753,4.582-13.675,9.547-19.832,14.062
			c-0.486,0.357-0.969,0.711-1.444,1.062c-10.444,7.689-18.37,13.831-18.914,14.079c-2.109,0.956-4.121,1.303-5.92,1.303
			c-4.566,0-7.77-2.212-7.77-2.212s-2.924-2.154-6.803-2.154c-2.525,0-5.457,0.915-8.248,3.926L9.17,73.168
			c2.075-1.527,5.977-4.188,7.976-4.188c0.059,0,0.116,0.003,0.172,0.006c0.353,0.023,0.679,0.216,0.905,0.525
			c0.225,0.312,0.329,0.716,0.285,1.116c-0.086,0.787-0.198,1.81-0.327,2.938c7.53-3.385,23.178-12.932,36.577-21.407l-0.436-1.231
			c-0.208-0.577-0.071-1.238,0.335-1.65c0.547-0.558,13.55-13.663,21.224-14.897c0.435-0.071,0.87,0.121,1.153,0.506
			c0.214,0.293,0.516,0.706,0.769,2.347C99.588,22.332,97.31,16.649,97.31,16.649z"/>
		<path d="M75.585,40.404c-0.033-0.594-0.072-1.134-0.122-1.605c-0.052-0.514-0.111-0.953-0.179-1.303
			c-5.923,1.691-15.105,10.25-18.017,13.071c-0.08,0.081-0.162,0.159-0.235,0.229l0.462,1.299l0.482,1.364L70.02,87.405
			c2.253-1.094,4.239-2.53,4.364-3.229c0.638-9.703,1.635-31.793,1.276-42.137C75.641,41.457,75.617,40.91,75.585,40.404z"/>
		<path d="M10.052,76l0.236,2.421l0.146,1.492l0.498,5.099l3.51-2.491c0.143-0.767,0.369-2.396,0.624-4.425
			c0.067-0.531,0.135-1.084,0.205-1.662c0.065-0.539,0.131-1.094,0.197-1.659c0.093-0.788,0.186-1.596,0.277-2.404
			c-1.434,0.677-3.503,2.014-5.362,3.392C10.273,75.838,10.161,75.918,10.052,76z"/>
	</g>
</g>
</svg>
